<?xml version="1.0" encoding="utf-8"?><svg xmlns="http://www.w3.org/2000/svg" xmlns:xlink="http://www.w3.org/1999/xlink" width="1920" height="983" preserveAspectRatio="xMidYMid" viewBox="0 0 1920 983" style="z-index:1;margin-right:-2px;display:block;background-repeat-y:initial;background-repeat-x:initial;background-color:rgb(7, 6, 22);animation-play-state:paused" ><g transform="translate(960,491.5) scale(1,1) translate(-960,-491.5)" style="transform:matrix(1, 0, 0, 1, 0, 0);animation-play-state:paused" ><defs style="animation-play-state:paused" ><path id="path-7mno4awuuv8-1" d="M-35 -35L35 -35L35 35L-35 35Z" fill="none" stroke="inherit" stroke-width="4.333333333333334" transform="scale(0.3)" style="transform:matrix(0.3, 0, 0, 0.3, 0, 0);animation-play-state:paused" ></path>

  
<path id="path-7mno4awuuv8-2" d="M0 -37A37 37 0 0 1 0 37A37 37 0 0 1 0 -37" fill="none" stroke="inherit" stroke-width="4.333333333333334" transform="scale(0.3)" style="transform:matrix(0.3, 0, 0, 0.3, 0, 0);animation-play-state:paused" ></path>

  
<path id="path-7mno4awuuv8-3" d="M0 -34.641L40 34.641L-40 34.641Z" fill="none" stroke="inherit" stroke-width="4.333333333333334" transform="scale(0.3)" style="transform:matrix(0.3, 0, 0, 0.3, 0, 0);animation-play-state:paused" ></path></defs>
<path id="path0" d="M 64.62362608885547 132.37089613078362
c 0 41.6854084997209 -10.199621228655113 11.973468398856005 -22.173089627511118 11.973468398856005
S 20.27744683383324 174.0563046305045 20.27744683383324 132.37089613078362
s 10.199621228655113 -11.973468398856005 22.173089627511118 -11.973468398856005
S 64.62362608885547 90.68548763106273 64.62362608885547 132.37089613078362
z" fill="none" stroke="none" style="animation-play-state:paused" ></path>


<use xlink:href="#path-7mno4awuuv8-2" x="0" y="0" stroke="#ddeeff" transform="translate(64.51499938964844 139.1294403076172)" style="animation-play-state:paused" ></use>
<path id="path1" d="M 143.6932172227076 819.1728152096259
c 0 24.129807563088256 -5.904101850542871 6.930902172376414 -12.835004022919286 6.930902172376414
S 118.02320917686902 843.3026227727141 118.02320917686902 819.1728152096259
s 5.904101850542871 -6.930902172376414 12.835004022919286 -6.930902172376414
S 143.6932172227076 795.0430076465377 143.6932172227076 819.1728152096259
z" fill="none" stroke="none" style="animation-play-state:paused" ></path>


<use xlink:href="#path-7mno4awuuv8-2" x="0" y="0" stroke="#bbddff" transform="translate(143.67825317382812 821.1668090820312)" style="animation-play-state:paused" ></use>
<path id="path2" d="M 330.4147336244622 271.3561071539944
c 0 40.803234400408336 -9.983770119248847 11.720077966074735 -21.703848085323582 11.720077966074735
S 287.0070374538151 312.1593415544027 287.0070374538151 271.3561071539944
s 9.983770119248847 -11.720077966074735 21.703848085323582 -11.720077966074735
S 330.4147336244622 230.55287275358606 330.4147336244622 271.3561071539944
z" fill="none" stroke="none" style="animation-play-state:paused" ></path>


<use xlink:href="#path-7mno4awuuv8-1" x="0" y="0" stroke="#ddeeff" transform="translate(298.6083679199219 288.4687805175781)" style="animation-play-state:paused" ></use>
<path id="path3" d="M 425.7033827843482 47.29263933755118
c 0 58.912841305556576 -14.414844149231927 16.921773566489655 -31.33661771572158 16.921773566489655
S 363.0301473529051 106.20548064310776 363.0301473529051 47.29263933755118
s 14.414844149231927 -16.921773566489655 31.33661771572158 -16.921773566489655
S 425.7033827843482 -11.620201968005397 425.7033827843482 47.29263933755118
z" fill="none" stroke="none" style="animation-play-state:paused" ></path>


<use xlink:href="#path-7mno4awuuv8-3" x="0" y="0" stroke="#ddeeff" transform="translate(425.6953125 49.57204818725586)" style="animation-play-state:paused" ></use>
<path id="path4" d="M 522.2357157309505 151.3008326003084
c 0 49.690528986515446 -12.158320922232502 14.272811517403374 -26.431132439635874 14.272811517403374
S 469.37345085167874 200.99136158682387 469.37345085167874 151.3008326003084
s 12.158320922232502 -14.272811517403374 26.431132439635874 -14.272811517403374
S 522.2357157309505 101.61030361379296 522.2357157309505 151.3008326003084
z" fill="none" stroke="none" style="animation-play-state:paused" ></path>


<use xlink:href="#path-7mno4awuuv8-1" x="0" y="0" stroke="#aabbcc" transform="translate(519.2886962890625 176.1994171142578)" style="animation-play-state:paused" ></use>
<path id="path5" d="M 657.616618041531 558.1048826976634
c 0 33.36088406214878 -8.162769504568317 9.582381592319331 -17.745151096887646 9.582381592319331
S 622.1263158477557 591.4657667598121 622.1263158477557 558.1048826976634
s 8.162769504568317 -9.582381592319331 17.745151096887646 -9.582381592319331
S 657.616618041531 524.7439986355146 657.616618041531 558.1048826976634
z" fill="none" stroke="none" style="animation-play-state:paused" ></path>


<use xlink:href="#path-7mno4awuuv8-3" x="0" y="0" stroke="#aabbcc" transform="translate(626.7467041015625 575.7129516601562)" style="animation-play-state:paused" ></use>
<path id="path6" d="M 754.7409721356047 166.4226679185023
c 0 61.2019836091527 -14.974953436282043 17.579293164331094 -32.55424660061314 17.579293164331094
S 689.6324789343784 227.624651527655 689.6324789343784 166.4226679185023
s 14.974953436282043 -17.579293164331094 32.55424660061314 -17.579293164331094
S 754.7409721356047 105.2206843093496 754.7409721356047 166.4226679185023
z" fill="none" stroke="none" style="animation-play-state:paused" ></path>


<use xlink:href="#path-7mno4awuuv8-2" x="0" y="0" stroke="#ddeeff" transform="translate(716.6610717773438 185.31297302246094)" style="animation-play-state:paused" ></use>
<path id="path7" d="M 851.3737964761877 30.59352591777255
c 0 41.53604053112067 -10.163073746976334 11.930564833407 -22.093638580383335 11.930564833407
S 807.1865193154212 72.12956644889321 807.1865193154212 30.59352591777255
s 10.163073746976334 -11.930564833407 22.093638580383335 -11.930564833407
S 851.3737964761877 -10.94251461334812 851.3737964761877 30.59352591777255
z" fill="none" stroke="none" style="animation-play-state:paused" ></path>


<use xlink:href="#path-7mno4awuuv8-3" x="0" y="0" stroke="#bbddff" transform="translate(850.1007080078125 48.30744171142578)" style="animation-play-state:paused" ></use>
<path id="path8" d="M 928.9472569334894 704.0650651467095
c 0 60.76562603268863 -14.868185093104664 17.453956413644608 -32.32214150674927 17.453956413644608
S 864.3029739199908 764.8306911793981 864.3029739199908 704.0650651467095
s 14.868185093104664 -17.453956413644608 32.32214150674927 -17.453956413644608
S 928.9472569334894 643.2994391140209 928.9472569334894 704.0650651467095
z" fill="none" stroke="none" style="animation-play-state:paused" ></path>


<use xlink:href="#path-7mno4awuuv8-1" x="0" y="0" stroke="#ddeeff" transform="translate(928.1515502929688 723.466552734375)" style="animation-play-state:paused" ></use>
<path id="path9" d="M 1057.8559327756427 26.543830273517997
c 0 47.50938131306545 -11.624635853196864 13.646311653752843 -25.270947506949707 13.646311653752843
S 1007.3140377617434 74.05321158658344 1007.3140377617434 26.543830273517997
s 11.624635853196864 -13.646311653752843 25.270947506949707 -13.646311653752843
S 1057.8559327756427 -20.96555103954745 1057.8559327756427 26.543830273517997
z" fill="none" stroke="none" style="animation-play-state:paused" ></path>


<use xlink:href="#path-7mno4awuuv8-2" x="0" y="0" stroke="#ddeeff" transform="translate(1057.82177734375 30.785554885864258)" style="animation-play-state:paused" ></use>
<path id="path10" d="M 1112.8959053472952 737.2138784707706
c 0 42.39698213045275 -10.37372967021716 12.177856569385364 -22.551586239602525 12.177856569385364
S 1067.79273286809 779.6108606012234 1067.79273286809 737.2138784707706
s 10.37372967021716 -12.177856569385364 22.551586239602525 -12.177856569385364
S 1112.8959053472952 694.8168963403178 1112.8959053472952 737.2138784707706
z" fill="none" stroke="none" style="animation-play-state:paused" ></path>


<use xlink:href="#path-7mno4awuuv8-3" x="0" y="0" stroke="#bbddff" transform="translate(1098.5599365234375 753.0958862304688)" style="animation-play-state:paused" ></use>
<path id="path11" d="M 1193.0881876699784 645.9255502145157
c 0 27.25707482144272 -6.669284264821091 7.829159789137804 -14.498444053958895 7.829159789137804
S 1164.0912995620608 673.1826250359585 1164.0912995620608 645.9255502145157
s 6.669284264821091 -7.829159789137804 14.498444053958895 -7.829159789137804
S 1193.0881876699784 618.668475393073 1193.0881876699784 645.9255502145157
z" fill="none" stroke="none" style="animation-play-state:paused" ></path>


<use xlink:href="#path-7mno4awuuv8-3" x="0" y="0" stroke="#aabbcc" transform="translate(1175.22265625 654.8084716796875)" style="animation-play-state:paused" ></use>
<path id="path12" d="M 1302.0666641439775 512.9543204782303
c 0 36.015803749457675 -8.812377513165174 10.344964906759119 -19.15734241992429 10.344964906759119
S 1263.7519793041288 548.970124227688 1263.7519793041288 512.9543204782303
s 8.812377513165174 -10.344964906759119 19.15734241992429 -10.344964906759119
S 1302.0666641439775 476.93851672877264 1302.0666641439775 512.9543204782303
z" fill="none" stroke="none" style="animation-play-state:paused" ></path>


<use xlink:href="#path-7mno4awuuv8-1" x="0" y="0" stroke="#ddeeff" transform="translate(1301.6170654296875 524.2462768554688)" style="animation-play-state:paused" ></use>
<path id="path13" d="M 1454.7521650300523 582.6402536301556
c 0 32.43663681224086 -7.936623900867445 9.316906318409611 -17.253530219277057 9.316906318409611
S 1420.2451045914981 615.0768904423965 1420.2451045914981 582.6402536301556
s 7.936623900867445 -9.316906318409611 17.253530219277057 -9.316906318409611
S 1454.7521650300523 550.2036168179147 1454.7521650300523 582.6402536301556
z" fill="none" stroke="none" style="animation-play-state:paused" ></path>


<use xlink:href="#path-7mno4awuuv8-1" x="0" y="0" stroke="#bbddff" transform="translate(1420.5645751953125 591.913818359375)" style="animation-play-state:paused" ></use>
<path id="path14" d="M 1583.8066670074165 177.73205215857735
c 0 20.75994452036098 -5.079560893279813 5.96296278776326 -11.042523681043072 5.96296278776326
S 1561.7216196453303 198.49199667893834 1561.7216196453303 177.73205215857735
s 5.079560893279813 -5.96296278776326 11.042523681043072 -5.96296278776326
S 1583.8066670074165 156.97210763821636 1583.8066670074165 177.73205215857735
z" fill="none" stroke="none" style="animation-play-state:paused" ></path>


<use xlink:href="#path-7mno4awuuv8-2" x="0" y="0" stroke="#ddeeff" transform="translate(1562.0650634765625 184.95285034179688)" style="animation-play-state:paused" ></use>
<path id="path15" d="M 1687.4344098344277 488.4720758558255
c 0 56.606366564337684 -13.85049394659326 16.259275502522527 -30.109769449115788 16.259275502522527
S 1627.2148709361963 545.0784424201631 1627.2148709361963 488.4720758558255
s 13.85049394659326 -16.259275502522527 30.109769449115788 -16.259275502522527
S 1687.4344098344277 431.8657092914878 1687.4344098344277 488.4720758558255
z" fill="none" stroke="none" style="animation-play-state:paused" ></path>


<use xlink:href="#path-7mno4awuuv8-2" x="0" y="0" stroke="#ddeeff" transform="translate(1686.8944091796875 504.4521484375)" style="animation-play-state:paused" ></use>
<path id="path16" d="M 1796.3767201941132 897.9898739212227
c 0 23.36704328985575 -5.717468039007257 6.711810306660694 -12.429278345667951 6.711810306660694
S 1771.5181635027775 921.3569172110784 1771.5181635027775 897.9898739212227
s 5.717468039007257 -6.711810306660694 12.429278345667951 -6.711810306660694
S 1796.3767201941132 874.622830631367 1796.3767201941132 897.9898739212227
z" fill="none" stroke="none" style="animation-play-state:paused" ></path>


<use xlink:href="#path-7mno4awuuv8-1" x="0" y="0" stroke="#ddeeff" transform="translate(1790.1378173828125 908.1412353515625)" style="animation-play-state:paused" ></use>
<path id="path17" d="M 1922.4086986859927 700.4900390311001
c 0 62.09387701030961 -15.193182672735329 17.83547531147191 -33.02865798420724 17.83547531147191
S 1856.3513827175782 762.5839160414097 1856.3513827175782 700.4900390311001
s 15.193182672735329 -17.83547531147191 33.02865798420724 -17.83547531147191
S 1922.4086986859927 638.3961620207905 1922.4086986859927 700.4900390311001
z" fill="none" stroke="none" style="animation-play-state:paused" ></path>


<use xlink:href="#path-7mno4awuuv8-1" x="0" y="0" stroke="#aabbcc" transform="translate(1921.806884765625 718.1316528320312)" style="animation-play-state:paused" ></use></g></svg>